<?xml version="1.0" standalone="no"?>
<!DOCTYPE svg PUBLIC "-//W3C//DTD SVG 20010904//EN"
 "http://www.w3.org/TR/2001/REC-SVG-20010904/DTD/svg10.dtd">
<svg version="1.0" xmlns="http://www.w3.org/2000/svg"
 width="1024.000000pt" height="1024.000000pt" viewBox="0 0 1024.000000 1024.000000"
 preserveAspectRatio="xMidYMid meet">
<metadata>
Created by potrace 1.16, written by Peter Selinger 2001-2019
</metadata>
<g transform="translate(0.000000,1024.000000) scale(0.100000,-0.100000)"
fill="#000000" stroke="none">
<path d="M0 5120 l0 -5120 5120 0 5120 0 0 5120 0 5120 -5120 0 -5120 0 0
-5120z m4930 3510 c410 -37 766 -194 1048 -465 93 -89 217 -231 245 -281 19
-33 -4 -9 -51 54 -208 279 -495 487 -822 596 -175 58 -312 80 -615 99 -44 3
-42 4 15 5 36 1 117 -3 180 -8z m-320 -11 c-105 -12 -265 -45 -379 -79 -53
-16 -97 -27 -99 -25 -5 5 143 50 233 71 111 26 216 42 270 42 41 -1 37 -2 -25
-9z m-525 -129 c-22 -10 -44 -18 -50 -18 -5 0 8 8 30 19 22 10 45 18 50 18 6
0 -8 -9 -30 -19z m-183 -85 c-67 -35 -163 -92 -213 -126 -264 -181 -523 -478
-688 -789 -28 -52 -51 -91 -51 -87 0 19 89 179 158 282 169 252 380 470 595
614 80 54 294 171 312 171 6 0 -45 -29 -113 -65z m1054 -286 c153 -27 296 -93
391 -182 l62 -58 53 40 c197 148 425 141 698 -22 47 -28 93 -60 103 -72 40
-45 157 -302 181 -395 42 -164 43 -156 -17 -96 -141 141 -382 191 -549 113
-139 -64 -218 -227 -189 -386 29 -157 107 -254 291 -362 185 -109 289 -262
290 -424 l0 -50 -67 -19 c-244 -69 -589 -250 -783 -411 -103 -85 -288 -266
-381 -372 -56 -63 -108 -113 -117 -112 -13 0 -13 2 4 9 11 4 60 54 109 111 49
56 102 115 116 130 l27 28 -166 1 c-307 0 -559 50 -812 159 -257 112 -384 237
-420 414 -24 118 25 266 123 373 107 118 250 189 500 249 78 19 169 43 201 55
149 51 261 150 307 270 99 260 -37 508 -309 566 -315 66 -758 -89 -1046 -366
-93 -89 -112 -118 -157 -240 -15 -41 -28 -69 -29 -62 -1 26 63 174 96 222 19
27 34 52 34 55 0 3 18 42 40 86 183 367 599 669 1025 743 97 17 309 20 391 5z
m-1905 -727 c-30 -26 -77 -68 -104 -95 -28 -26 -52 -45 -54 -43 -2 2 2 10 10
17 8 7 13 20 12 29 -1 8 0 10 2 3 3 -7 40 18 91 62 48 41 89 74 92 74 3 0 -19
-21 -49 -47z m70 11 c-12 -20 -14 -14 -5 12 4 9 9 14 11 11 3 -2 0 -13 -6 -23z
m-32 -87 c-12 -31 -24 -55 -26 -53 -2 2 6 30 18 61 12 31 24 55 26 53 2 -2 -6
-30 -18 -61z m-158 27 c-12 -20 -14 -14 -5 12 4 9 9 14 11 11 3 -2 0 -13 -6
-23z m103 -187 c-10 -31 -19 -54 -22 -52 -2 2 4 29 14 60 10 31 19 54 22 52 2
-2 -4 -29 -14 -60z m-30 -110 c-3 -21 -8 -35 -11 -32 -2 2 -1 20 3 40 3 21 8
35 11 32 2 -2 1 -20 -3 -40z m-19 -101 c-4 -25 -9 -44 -12 -41 -2 2 -1 25 2
51 4 25 9 44 12 41 2 -2 1 -25 -2 -51z m379 -4 c-4 -23 -9 -40 -11 -37 -3 3
-2 23 2 46 4 23 9 39 11 37 3 -2 2 -23 -2 -46z m-17 -233 c-2 -35 -3 -7 -3 62
0 69 1 97 3 63 2 -35 2 -91 0 -125z m-380 95 c-2 -16 -4 -3 -4 27 0 30 2 43 4
28 2 -16 2 -40 0 -55z m3893 46 c26 -6 20 -7 -25 -3 -33 3 -72 8 -87 10 -25 5
-27 2 -31 -33 l-4 -38 -1 43 -2 42 58 -6 c31 -4 73 -10 92 -15z m125 -30 c266
-82 593 -305 678 -461 17 -32 17 -32 0 -8 -60 82 -102 127 -171 182 -158 126
-318 214 -495 273 -111 37 -120 48 -12 14z m-278 -91 c-2 -13 -4 -5 -4 17 -1
22 1 32 4 23 2 -10 2 -28 0 -40z m-3938 5 c-1 -35 -2 -36 -8 -10 l-6 28 -105
-87 c-190 -157 -415 -404 -560 -611 -23 -35 -45 -63 -47 -63 -17 0 156 228
280 369 56 62 140 148 187 191 77 71 251 219 258 220 1 0 1 -17 1 -37z m188
-235 c-1 -51 -3 -10 -3 92 0 102 2 143 3 93 2 -51 2 -135 0 -185z m3740 165
c-3 -10 -5 -4 -5 12 0 17 2 24 5 18 2 -7 2 -21 0 -30z m-3920 -30 c-3 -10 -5
-2 -5 17 0 19 2 27 5 18 2 -10 2 -26 0 -35z m3910 -25 c-3 -7 -5 -2 -5 12 0
14 2 19 5 13 2 -7 2 -19 0 -25z m-3288 -142 c7 -16 10 -31 7 -33 -7 -7 -56
154 -55 180 0 12 8 -9 19 -48 10 -38 23 -83 29 -99z m-573 -4 c-5 -5 -46 119
-46 137 1 9 12 -18 25 -59 13 -41 23 -76 21 -78z m3934 98 c46 -23 128 -104
153 -152 17 -31 17 -32 0 -8 -45 63 -122 135 -168 156 -27 13 -44 24 -37 24 7
0 30 -9 52 -20z m406 -72 c50 -65 125 -195 124 -215 -1 -5 -17 23 -37 61 -37
74 -96 158 -132 190 -19 17 -28 36 -17 36 3 0 30 -33 62 -72z m-76 27 c0 -5
-5 -3 -10 5 -5 8 -10 20 -10 25 0 6 5 3 10 -5 5 -8 10 -19 10 -25z m35 -88
c14 -37 25 -73 25 -80 -1 -11 -60 140 -60 152 0 13 12 -12 35 -72z m-4207
-111 c20 -27 31 -46 23 -42 -16 11 -111 155 -111 170 0 6 12 -9 25 -33 14 -24
42 -67 63 -95z m4567 52 c26 -34 54 -76 62 -93 21 -41 11 -29 -36 41 -22 32
-49 71 -61 87 -12 15 -19 27 -17 27 3 0 26 -28 52 -62z m-4046 5 c12 -24 19
-43 16 -43 -5 0 -45 75 -45 86 0 11 6 2 29 -43z m3989 12 c-3 -3 -9 2 -12 12
-6 14 -5 15 5 6 7 -7 10 -15 7 -18z m-4461 -62 c-2 -16 -4 -3 -4 27 0 30 2 43
4 28 2 -16 2 -40 0 -55z m4003 -22 c11 -29 19 -55 17 -57 -2 -2 -16 26 -30 63
-15 37 -23 62 -18 57 5 -5 19 -33 31 -63z m484 19 c5 -17 4 -20 -2 -10 -5 8
-13 26 -16 40 -5 17 -4 20 2 10 5 -8 13 -26 16 -40z m-3946 -63 c50 -76 195
-220 275 -272 31 -21 57 -40 57 -42 0 -5 -12 2 -81 48 -96 64 -243 220 -285
301 -24 46 -11 32 34 -35z m3670 -12 c0 -16 -2 -15 -8 5 -11 34 -11 60 0 35 5
-11 8 -29 8 -40z m541 0 c0 -5 -6 1 -14 15 -8 14 -14 30 -14 35 0 6 6 -1 14
-15 8 -14 14 -29 14 -35z m-400 -55 c0 -8 -7 1 -14 20 -18 46 -17 64 0 25 8
-16 14 -37 14 -45z m169 15 c0 -16 -2 -15 -8 5 -11 34 -11 60 0 35 5 -11 8
-29 8 -40z m101 -20 c0 -5 -6 1 -14 15 -8 14 -14 30 -14 35 0 6 6 -1 14 -15 8
-14 14 -29 14 -35z m-402 -2 c-3 -10 -5 -4 -5 12 0 17 2 24 5 18 2 -7 2 -21 0
-30z m-159 -78 c0 -11 -6 3 -14 30 -7 28 -13 55 -13 60 2 17 27 -69 27 -90z
m720 -35 c0 -111 -5 -92 -11 35 -2 55 0 89 4 75 4 -14 7 -63 7 -110z m-251 73
c-3 -10 -5 -4 -5 12 0 17 2 24 5 18 2 -7 2 -21 0 -30z m-170 5 c-3 -8 -6 -5
-6 6 -1 11 2 17 5 13 3 -3 4 -12 1 -19z m282 -18 c0 -10 -3 -8 -9 5 -12 27
-12 43 0 25 5 -8 9 -22 9 -30z m-412 -47 c-2 -16 -4 -5 -4 22 0 28 2 40 4 28
2 -13 2 -35 0 -50z m140 10 c-3 -10 -5 -4 -5 12 0 17 2 24 5 18 2 -7 2 -21 0
-30z m170 -130 c-2 -32 -3 -8 -3 52 0 61 1 87 3 58 2 -29 2 -78 0 -110z m122
73 c2 -45 -6 -27 -12 29 -4 34 -3 42 3 25 4 -14 8 -38 9 -54z m-592 7 c-3 -10
-5 -4 -5 12 0 17 2 24 5 18 2 -7 2 -21 0 -30z m310 -20 c-3 -10 -5 -2 -5 17 0
19 2 27 5 18 2 -10 2 -26 0 -35z m-523 -15 c8 -29 25 -104 36 -167 25 -134 70
-264 111 -321 42 -58 104 -85 161 -70 24 7 53 18 65 25 18 12 23 12 34 -1 54
-65 146 -55 251 28 36 28 38 28 67 13 49 -25 112 -20 157 13 50 37 106 99 150
168 25 38 39 52 47 46 7 -5 50 -37 97 -72 398 -298 660 -733 757 -1260 25
-137 25 -494 0 -644 -60 -355 -189 -652 -394 -906 -71 -87 -241 -254 -328
-321 -284 -219 -662 -377 -1000 -418 -49 -6 -105 -13 -122 -16 -18 -2 -33 -2
-33 0 0 2 21 13 46 24 121 54 232 161 285 277 15 34 35 64 43 67 8 3 27 25 42
49 40 63 40 133 -1 183 -42 52 -127 101 -285 164 -298 118 -699 334 -850 458
-67 55 -278 246 -279 253 -1 3 33 4 74 2 49 -2 81 1 91 8 18 16 20 190 2 208
-8 8 -55 12 -145 12 l-132 0 -1 457 c0 277 -4 461 -10 467 -13 13 -176 14
-189 1 -7 -7 -11 -159 -11 -433 -1 -232 -5 -422 -9 -422 -12 0 -450 430 -553
542 l-88 95 15 84 c41 235 169 497 350 719 120 147 320 323 495 435 183 117
453 228 655 269 84 17 228 32 327 35 l57 1 15 -52z m383 -45 c-2 -16 -4 -3 -4
27 0 30 2 43 4 28 2 -16 2 -40 0 -55z m-160 20 c-3 -10 -5 -4 -5 12 0 17 2 24
5 18 2 -7 2 -21 0 -30z m310 -150 c-2 -32 -3 -6 -3 57 0 63 1 89 3 58 2 -32 2
-84 0 -115z m280 55 c-2 -24 -4 -7 -4 37 0 44 2 63 4 43 2 -21 2 -57 0 -80z
m-5619 54 c-34 -57 -63 -94 -37 -47 32 57 51 85 56 85 2 0 -6 -17 -19 -38z
m5717 -2 c-4 -17 -9 -30 -11 -27 -2 2 -1 18 2 36 4 17 9 30 11 27 3 -2 2 -19
-2 -36z m-678 -12 c-3 -7 -5 -2 -5 12 0 14 2 19 5 13 2 -7 2 -19 0 -25z m140
-67 c-8 -74 -41 -163 -70 -187 l-22 -19 18 21 c27 33 57 118 64 185 3 32 8 59
11 59 3 0 2 -27 -1 -59z m-130 17 c-3 -7 -5 -2 -5 12 0 14 2 19 5 13 2 -7 2
-19 0 -25z m418 -64 c-9 -35 -22 -67 -28 -71 -7 -4 -8 0 -2 13 5 10 15 47 24
81 9 34 18 57 20 52 2 -6 -4 -40 -14 -75z m-4053 50 c178 -65 375 -169 622
-331 233 -153 335 -200 489 -228 40 -7 58 -14 41 -14 -100 -3 -302 80 -475
197 -253 169 -503 304 -681 367 -43 15 -78 29 -78 31 0 7 7 5 82 -22z m-117 6
c3 -6 -1 -7 -9 -4 -18 7 -21 14 -7 14 6 0 13 -4 16 -10z m4372 -57 c-23 -44
-77 -107 -77 -89 0 5 10 16 23 26 12 10 33 41 47 69 13 28 25 49 27 47 3 -2
-7 -26 -20 -53z m-4237 -26 c138 -92 264 -199 446 -381 167 -167 266 -280 524
-602 277 -344 487 -579 743 -832 198 -196 240 -234 514 -459 288 -237 493
-450 493 -513 0 -8 -12 10 -26 40 -35 76 -238 274 -516 503 -460 378 -735 664
-1247 1297 -270 334 -385 463 -548 620 -149 143 -251 226 -393 322 -58 39
-107 73 -110 75 -12 13 51 -24 120 -70z m3627 41 c-3 -7 -5 -2 -5 12 0 14 2
19 5 13 2 -7 2 -19 0 -25z m-5178 -95 c-63 -119 -78 -144 -65 -108 11 30 116
225 122 225 3 0 -23 -53 -57 -117z m5728 45 c-2 -13 -4 -5 -4 17 -1 22 1 32 4
23 2 -10 2 -28 0 -40z m-540 0 c-3 -7 -5 -2 -5 12 0 14 2 19 5 13 2 -7 2 -19
0 -25z m21 -83 c0 -16 -2 -15 -8 5 -4 14 -8 34 -8 45 0 16 2 15 8 -5 4 -14 8
-34 8 -45z m235 -16 c-4 -4 -6 13 -3 39 l5 47 3 -39 c2 -21 0 -42 -5 -47z m89
19 c-12 -18 -32 -42 -46 -53 -26 -19 -27 -19 -44 0 -15 17 -15 17 0 6 23 -17
50 -1 78 44 12 19 24 35 27 35 3 0 -4 -15 -15 -32z m-5636 -179 c-19 -41 -35
-71 -35 -67 -1 12 61 149 66 145 2 -2 -12 -37 -31 -78z m-45 -106 c-12 -20
-14 -14 -5 12 4 9 9 14 11 11 3 -2 0 -13 -6 -23z m-22 -62 c-6 -18 -13 -30
-15 -28 -2 2 1 18 7 36 6 18 13 30 15 28 2 -2 -1 -18 -7 -36z m-38 -102 c-11
-30 -20 -49 -20 -43 -1 15 30 106 35 101 2 -2 -5 -28 -15 -58z m3184 51 c-16
-4 -48 -7 -70 -7 l-40 0 45 7 c25 4 56 7 70 7 22 1 21 0 -5 -7z m-148 -17
c-20 -2 -52 -2 -70 0 -17 2 0 4 38 4 39 0 53 -2 32 -4z m-3068 -147 c-6 -26
-13 -45 -16 -43 -2 3 1 26 8 51 6 26 13 45 16 43 2 -3 -1 -26 -8 -51z m921
-61 c0 -5 -5 -3 -10 5 -5 8 -10 20 -10 25 0 6 5 3 10 -5 5 -8 10 -19 10 -25z
m-53 -27 c-2 -13 -4 -5 -4 17 -1 22 1 32 4 23 2 -10 2 -28 0 -40z m-899 -26
c-6 -29 -13 -50 -16 -47 -2 2 1 27 8 55 7 28 14 49 16 47 3 -2 -1 -27 -8 -55z
m972 3 c0 -5 -5 -3 -10 5 -5 8 -10 20 -10 25 0 6 5 3 10 -5 5 -8 10 -19 10
-25z m-83 -157 c-2 -29 -3 -6 -3 52 0 58 1 81 3 53 2 -29 2 -77 0 -105z m112
87 c0 -5 -6 1 -14 15 -8 14 -14 30 -14 35 0 6 6 -1 14 -15 8 -14 14 -29 14
-35z m-1025 -39 c-3 -21 -8 -35 -11 -32 -2 2 -1 20 3 40 3 21 8 35 11 32 2 -2
1 -20 -3 -40z m1085 -83 c28 -57 49 -103 46 -103 -5 0 -105 196 -105 206 0 13
7 0 59 -103z m-1102 0 c-3 -10 -5 -4 -5 12 0 17 2 24 5 18 2 -7 2 -21 0 -30z
m1468 -123 c237 -331 408 -498 915 -897 255 -200 345 -279 596 -517 364 -346
592 -510 837 -601 26 -10 45 -20 43 -22 -9 -9 -183 71 -284 130 -188 111 -361
252 -646 527 -199 192 -301 280 -581 500 -406 320 -579 480 -748 693 -73 91
-194 256 -212 287 -17 32 14 -8 80 -100z m-1478 63 c-3 -10 -5 -4 -5 12 0 17
2 24 5 18 2 -7 2 -21 0 -30z m950 -40 c-2 -16 -4 -3 -4 27 0 30 2 43 4 28 2
-16 2 -40 0 -55z m441 -38 c-1 -31 -16 35 -16 70 0 25 2 24 9 -10 4 -22 8 -49
7 -60z m-1401 8 c-3 -10 -5 -2 -5 17 0 19 2 27 5 18 2 -10 2 -26 0 -35z m1243
-79 c34 -53 108 -144 164 -202 55 -59 81 -89 56 -68 -70 61 -167 173 -224 261
-63 96 -68 105 -63 105 2 0 32 -43 67 -96z m-273 39 c-3 -10 -5 -4 -5 12 0 17
2 24 5 18 2 -7 2 -21 0 -30z m-980 -35 c-2 -13 -4 -5 -4 17 -1 22 1 32 4 23 2
-10 2 -28 0 -40z m1459 -135 c-5 -5 -46 148 -45 168 0 8 11 -26 25 -75 13 -49
23 -91 20 -93z m-469 110 c-3 -10 -5 -4 -5 12 0 17 2 24 5 18 2 -7 2 -21 0
-30z m-1000 -65 c-2 -13 -4 -3 -4 22 0 25 2 35 4 23 2 -13 2 -33 0 -45z m1010
20 c-3 -8 -6 -5 -6 6 -1 11 2 17 5 13 3 -3 4 -12 1 -19z m22 -68 c0 -9 -4 -8
-9 5 -5 11 -9 27 -9 35 0 9 4 8 9 -5 5 -11 9 -27 9 -35z m-1042 -92 c-2 -24
-4 -7 -4 37 0 44 2 63 4 43 2 -21 2 -57 0 -80z m1503 47 c0 -5 -5 -3 -10 5 -5
8 -10 20 -10 25 0 6 5 3 10 -5 5 -8 10 -19 10 -25z m43 -93 c25 -52 29 -68 16
-56 -11 9 -19 23 -19 31 0 8 -9 31 -20 53 -18 36 -26 60 -16 49 2 -2 20 -37
39 -77z m-463 23 c0 -5 -5 -3 -10 5 -5 8 -10 20 -10 25 0 6 5 3 10 -5 5 -8 10
-19 10 -25z m129 -233 c24 -34 42 -64 40 -66 -2 -2 -40 -28 -84 -57 -94 -63
-216 -181 -270 -262 -38 -57 -63 -82 -30 -29 72 113 187 227 304 302 38 25 70
48 70 51 1 3 -17 29 -38 58 -39 52 -121 201 -121 218 0 4 20 -28 43 -72 23
-44 62 -108 86 -143z m-1222 71 c-3 -10 -5 -4 -5 12 0 17 2 24 5 18 2 -7 2
-21 0 -30z m10 -170 c-2 -21 -4 -6 -4 32 0 39 2 55 4 38 2 -18 2 -50 0 -70z
m257 -113 c4 -30 3 -36 -3 -20 -13 41 -22 97 -12 80 5 -8 11 -35 15 -60z
m-247 -2 c-2 -13 -4 -3 -4 22 0 25 2 35 4 23 2 -13 2 -33 0 -45z m200 -5 c-2
-16 -4 -5 -4 22 0 28 2 40 4 28 2 -13 2 -35 0 -50z m-190 -70 c-3 -10 -5 -2
-5 17 0 19 2 27 5 18 2 -10 2 -26 0 -35z m180 -30 c-2 -16 -4 -5 -4 22 0 28 2
40 4 28 2 -13 2 -35 0 -50z m1441 60 c-21 -2 -55 -2 -75 0 -21 2 -4 4 37 4 41
0 58 -2 38 -4z m-1371 -25 c-3 -8 -6 -5 -6 6 -1 11 2 17 5 13 3 -3 4 -12 1
-19z m1241 15 c-10 -2 -28 -2 -40 0 -13 2 -5 4 17 4 22 1 32 -1 23 -4z m297
-9 c53 -14 51 -14 -80 6 -48 7 -48 8 -10 8 22 0 63 -6 90 -14z m-372 -1 c-7
-2 -19 -2 -25 0 -7 3 -2 5 12 5 14 0 19 -2 13 -5z m-63 -13 c-34 -11 -60 -11
-35 0 11 5 29 8 40 8 16 0 15 -2 -5 -8z m554 -16 c26 -9 45 -18 43 -20 -2 -2
-28 5 -58 15 -30 11 -49 20 -43 20 6 1 32 -6 58 -15z m-1647 -16 c-3 -8 -6 -5
-6 6 -1 11 2 17 5 13 3 -3 4 -12 1 -19z m-250 -25 c-3 -10 -5 -4 -5 12 0 17 2
24 5 18 2 -7 2 -21 0 -30z m1233 25 c-14 -6 -69 -30 -122 -53 -97 -43 -128
-51 -65 -19 47 25 190 84 202 83 6 0 -1 -5 -15 -11z m825 -51 c173 -86 368
-232 535 -397 126 -125 192 -203 320 -380 222 -306 368 -451 605 -603 48 -31
50 -34 51 -80 l1 -47 -4 45 c-4 41 -8 48 -46 72 -247 154 -366 274 -649 653
-140 187 -230 292 -335 386 -175 158 -351 281 -515 360 -40 19 -62 32 -48 28
14 -4 52 -20 85 -37z m-1798 11 c-3 -8 -6 -5 -6 6 -1 11 2 17 5 13 3 -3 4 -12
1 -19z m-100 -300 c-1 -57 -3 -11 -3 102 0 113 2 159 3 103 2 -57 2 -149 0
-205z m-150 260 c-3 -7 -5 -2 -5 12 0 14 2 19 5 13 2 -7 2 -19 0 -25z m260 0
c-3 -8 -6 -5 -6 6 -1 11 2 17 5 13 3 -3 4 -12 1 -19z m22 -68 c0 -9 -4 -8 -9
5 -5 11 -9 27 -9 35 0 9 4 8 9 -5 5 -11 9 -27 9 -35z m711 45 c0 -2 -10 -9
-22 -15 -22 -11 -22 -10 -4 4 21 17 26 19 26 11z m-983 -37 c-3 -7 -5 -2 -5
12 0 14 2 19 5 13 2 -7 2 -19 0 -25z m784 -33 c-22 -57 -36 -72 -16 -16 15 43
24 61 30 61 2 0 -5 -20 -14 -45z m139 32 c-25 -23 -150 -108 -150 -103 0 6
151 115 160 116 2 0 -2 -6 -10 -13z m-913 -49 c-3 -7 -5 -2 -5 12 0 14 2 19 5
13 2 -7 2 -19 0 -25z m329 -175 c-5 -5 -66 177 -65 192 0 6 16 -35 35 -89 18
-55 32 -101 30 -103z m-319 135 c-3 -8 -6 -5 -6 6 -1 11 2 17 5 13 3 -3 4 -12
1 -19z m10 -40 c-3 -8 -6 -5 -6 6 -1 11 2 17 5 13 3 -3 4 -12 1 -19z m10 -40
c-3 -8 -6 -5 -6 6 -1 11 2 17 5 13 3 -3 4 -12 1 -19z m22 -68 c0 -9 -4 -8 -9
5 -5 11 -9 27 -9 35 0 9 4 8 9 -5 5 -11 9 -27 9 -35z m311 -65 c0 -5 -5 -3
-10 5 -5 8 -10 20 -10 25 0 6 5 3 10 -5 5 -8 10 -19 10 -25z m-266 -65 c5 -17
4 -20 -2 -10 -5 8 -13 26 -16 40 -5 17 -4 20 2 10 5 -8 13 -26 16 -40z m43
-32 c-2 -18 -4 -6 -4 27 0 33 2 48 4 33 2 -15 2 -42 0 -60z m262 7 c0 -5 -8 6
-19 25 -11 19 -19 40 -19 45 0 6 8 -6 19 -25 11 -19 19 -39 19 -45z m-256 -65
c3 8 6 -1 6 -20 l0 -35 -18 35 c-10 19 -21 46 -25 60 -3 14 2 7 12 -15 13 -27
21 -35 25 -25z m306 -37 c23 -46 39 -83 36 -83 -5 0 -85 156 -85 166 0 12 7 1
49 -83z m101 -182 c126 -207 328 -430 516 -570 100 -74 236 -161 242 -156 2 2
-9 23 -26 47 -57 83 -143 281 -128 295 3 3 10 -15 16 -38 18 -68 84 -203 134
-275 25 -35 43 -64 41 -64 -12 0 -191 116 -267 172 -221 163 -441 409 -559
623 -45 83 -29 65 31 -34z m4039 -115 c2 -60 -6 -39 -12 34 -3 41 -2 54 3 35
4 -16 8 -48 9 -69z m280 12 c109 -51 372 -154 519 -203 85 -29 112 -42 110
-54 -5 -25 -126 -80 -216 -98 -76 -15 -89 -15 -184 1 -106 17 -229 55 -330 99
l-58 26 17 38 c13 28 17 65 17 141 0 119 -13 114 125 50z m-299 -118 l-11 -25
6 25 c2 14 5 34 6 45 2 19 2 19 6 0 2 -12 -1 -32 -7 -45z m-25 -72 c-22 -41
-72 -95 -107 -114 -14 -7 -53 -16 -85 -18 l-58 -5 50 9 c27 5 60 12 73 15 34
8 96 69 117 115 10 22 20 38 22 36 3 -2 -3 -19 -12 -38z m-650 -48 c13 -6 15
-9 5 -9 -8 0 -22 4 -30 9 -18 12 -2 12 25 0z m155 -40 c47 -11 122 -23 165
-28 51 -6 65 -10 39 -11 -54 -1 -216 27 -284 50 -58 20 -54 19 80 -11z m-2715
-125 c85 -72 298 -212 423 -279 50 -28 90 -52 88 -54 -5 -4 -172 88 -271 151
-122 77 -256 180 -332 254 -38 38 -49 50 -24 27 25 -23 77 -67 116 -99z m3497
-50 c44 -14 119 -32 166 -40 102 -18 323 -21 353 -4 37 19 17 -12 -29 -48
-165 -126 -526 -125 -785 3 l-57 27 48 33 c26 17 62 48 81 67 l34 36 54 -25
c30 -13 91 -35 135 -49z m-740 -172 l147 5 96 -56 95 -57 -58 -28 c-33 -15
-104 -39 -158 -54 -87 -23 -120 -26 -266 -27 -91 -1 -169 1 -172 4 -3 3 6 39
19 80 13 41 27 91 30 111 l5 36 58 -10 c31 -5 123 -7 204 -4z m-565 -55 c-3
-7 -5 -2 -5 12 0 14 2 19 5 13 2 -7 2 -19 0 -25z m-27 -91 c-27 -71 -89 -165
-137 -208 -65 -57 -129 -79 -239 -84 l-99 -4 99 10 c66 6 117 17 150 32 93 43
192 167 227 286 7 24 15 39 16 34 2 -6 -6 -36 -17 -66z m-1580 8 c25 -13 41
-24 35 -24 -5 0 -30 11 -55 24 -25 13 -40 24 -35 24 6 0 30 -11 55 -24z m192
-78 c59 -22 106 -42 104 -44 -5 -5 -193 65 -226 84 -30 17 -21 14 122 -40z
m2636 38 c29 -9 52 -19 52 -23 -1 -16 -64 -89 -114 -131 -178 -151 -424 -237
-749 -262 -73 -5 -161 -7 -197 -4 -96 8 -250 27 -250 31 0 1 27 28 59 59 33
31 71 73 86 94 26 38 26 39 68 28 23 -6 114 -11 202 -11 245 0 411 42 648 164
73 37 135 68 138 69 3 0 29 -6 57 -14z m-2353 -130 c66 -18 112 -34 103 -34
-20 -1 -260 67 -268 76 -6 7 1 5 165 -42z m185 -45 c20 -6 21 -8 5 -8 -11 0
-31 4 -45 8 -20 6 -21 8 -5 8 11 0 31 -4 45 -8z m165 -35 c66 -14 134 -26 150
-26 28 -2 29 -2 4 -6 -24 -4 -278 43 -288 53 -8 7 14 4 134 -21z m248 -42
c-13 -2 -33 -2 -45 0 -13 2 -3 4 22 4 25 0 35 -2 23 -4z"/>
<path d="M5153 7015 c-117 -33 -184 -107 -191 -213 -4 -52 0 -71 22 -116 33
-67 90 -119 171 -157 174 -82 397 -74 504 18 163 139 64 375 -189 454 -87 27
-247 34 -317 14z"/>
<path d="M4507 6572 c-45 -49 5 -176 104 -265 253 -229 718 -312 1039 -185
112 44 164 89 164 143 0 71 -60 100 -128 60 -209 -123 -557 -122 -814 1 -82
40 -179 127 -240 217 -29 42 -35 47 -70 47 -25 0 -45 -7 -55 -18z"/>
<path d="M6590 5825 c-264 -36 -551 -151 -780 -313 -119 -84 -344 -308 -427
-425 -114 -163 -224 -413 -240 -548 -7 -56 16 -99 53 -99 29 0 50 31 59 89 11
69 58 199 109 300 81 162 170 282 308 419 254 250 550 399 919 461 129 22 149
32 149 77 0 20 -34 56 -50 53 -3 -1 -48 -7 -100 -14z m135 -25 c11 -33 -11
-58 -57 -65 -137 -20 -267 -51 -372 -86 -525 -178 -940 -620 -1056 -1124 -13
-58 -19 -71 -37 -73 -34 -5 -56 37 -48 90 10 61 52 191 87 273 210 485 747
899 1278 985 41 6 82 13 90 15 8 1 36 3 62 4 38 1 48 -3 53 -19z"/>
<path d="M7745 5540 c-3 -5 0 -7 8 -4 56 21 521 -440 491 -487 -4 -7 -3 -9 4
-6 23 15 153 -244 206 -411 108 -341 106 -776 -4 -1110 -78 -237 -199 -438
-374 -620 -208 -216 -421 -354 -730 -472 -16 -6 -26 -13 -24 -16 3 -3 52 13
109 36 120 47 301 148 421 235 112 81 308 279 390 395 134 189 238 437 280
670 30 167 30 497 0 661 -40 218 -137 464 -254 645 -101 157 -274 335 -434
450 -63 45 -78 51 -89 34z"/>
<path d="M7699 5503 c-13 -17 -13 -17 6 -3 11 8 22 16 24 17 2 2 0 3 -6 3 -6
0 -17 -8 -24 -17z"/>
<path d="M7686 5472 c5 -5 47 -37 94 -72 341 -255 557 -606 631 -1030 29 -162
29 -411 0 -571 -92 -522 -423 -950 -926 -1202 -59 -29 -77 -45 -108 -91 -41
-62 -43 -68 -22 -60 8 4 15 12 15 19 0 6 13 30 30 53 23 32 52 52 132 92 246
122 490 337 643 566 240 359 328 816 240 1251 -42 204 -152 458 -273 627 -78
109 -237 268 -354 354 -54 40 -101 72 -105 72 -4 0 -3 -4 3 -8z"/>
<path d="M7163 4732 c-148 -53 -219 -161 -211 -320 7 -144 61 -210 268 -327
148 -83 177 -106 189 -150 32 -116 -93 -208 -197 -145 -30 18 -40 35 -71 113
-10 27 -12 27 -100 27 -111 0 -126 -10 -116 -79 16 -109 80 -195 184 -247 71
-35 200 -45 282 -21 140 41 234 169 233 317 -2 137 -65 223 -239 325 -143 83
-184 113 -206 148 -30 50 -25 93 15 133 29 29 41 34 80 34 25 0 56 -5 70 -11
24 -11 50 -54 58 -94 3 -18 12 -20 87 -23 52 -2 88 1 97 9 18 15 18 50 -3 123
-22 78 -93 154 -168 180 -77 27 -189 31 -252 8z"/>
<path d="M6214 4731 c-10 -2 -22 -8 -26 -15 -11 -15 -10 -168 1 -184 6 -11 50
-14 190 -15 99 -1 181 -4 181 -6 0 -2 -78 -148 -174 -325 -237 -438 -216 -391
-216 -490 0 -64 4 -88 16 -100 13 -14 56 -16 313 -16 244 0 301 3 310 14 8 9
11 47 9 107 l-3 94 -197 3 c-109 1 -198 5 -198 7 0 7 325 598 366 666 32 53
34 62 34 147 0 62 -4 93 -13 100 -13 11 -546 22 -593 13z"/>
<path d="M7762 4718 c-9 -9 -12 -147 -12 -559 0 -484 2 -549 16 -563 23 -24
475 -24 498 0 20 19 23 173 4 192 -8 8 -57 12 -155 12 l-143 0 0 449 c0 247
-3 456 -6 465 -5 13 -23 16 -98 16 -58 0 -96 -4 -104 -12z"/>
</g>
</svg>
